<svg width="1200" height="630" viewBox="0 0 1200 630" fill="none" xmlns="http://www.w3.org/2000/svg">
  <rect width="1200" height="630" fill="#ECFDF5"/>
  <rect x="52" y="52" width="1096" height="526" rx="36" fill="url(#paint0_linear)"/>
  <circle cx="1018" cy="138" r="92" fill="#CCFBF1" fill-opacity="0.5"/>
  <circle cx="1058" cy="482" r="122" fill="#99F6E4" fill-opacity="0.4"/>
  <rect x="112" y="122" width="76" height="76" rx="20" fill="#14B8A6"/>
  <path d="M148 138C156.837 138 164 145.163 164 154V166H172C180.837 166 188 173.163 188 182C188 190.837 180.837 198 172 198H164V206C164 214.837 156.837 222 148 222C139.163 222 132 214.837 132 206V198H124C115.163 198 108 190.837 108 182C108 173.163 115.163 166 124 166H132V154C132 145.163 139.163 138 148 138Z" fill="white"/>
  <text x="220" y="165" fill="white" font-family="Arial, sans-serif" font-size="54" font-weight="700">MediBrief</text>
  <text x="112" y="268" fill="white" font-family="Arial, sans-serif" font-size="72" font-weight="700">AI Health Assistant</text>
  <text x="112" y="334" fill="#D1FAE5" font-family="Arial, sans-serif" font-size="30">
    Symptom analysis, report understanding, first-aid guidance,
  </text>
  <text x="112" y="376" fill="#D1FAE5" font-family="Arial, sans-serif" font-size="30">
    emergency references, and personal health tracking.
  </text>
  <rect x="112" y="442" width="276" height="64" rx="18" fill="white"/>
  <text x="156" y="484" fill="#0F766E" font-family="Arial, sans-serif" font-size="28" font-weight="700">Launch-ready on a budget</text>
  <defs>
    <linearGradient id="paint0_linear" x1="52" y1="52" x2="1148" y2="578" gradientUnits="userSpaceOnUse">
      <stop stop-color="#0F766E"/>
      <stop offset="1" stop-color="#115E59"/>
    </linearGradient>
  </defs>
</svg>
